<svg xmlns="http://www.w3.org/2000/svg" viewBox="0 0 300 200">
  <!-- Background -->
  <rect width="300" height="200" fill="#2a2a2a"/>
  
  <!-- House outline -->
  <path d="M150,40 L80,90 L80,160 L220,160 L220,90 Z" fill="#7c4dff" opacity="0.8"/>
  
  <!-- Roof -->
  <path d="M150,40 L80,90 L220,90 Z" fill="#b388ff" opacity="0.9"/>
  
  <!-- Door -->
  <rect x="135" y="120" width="30" height="40" fill="#00e5ff"/>
  <circle cx="145" cy="140" r="3" fill="#ffffff"/>
  
  <!-- Windows -->
  <rect x="100" y="100" width="20" height="20" fill="#00e5ff" opacity="0.8"/>
  <rect x="180" y="100" width="20" height="20" fill="#00e5ff" opacity="0.8"/>
  
  <!-- IoT connection lines -->
  <line x1="100" y1="100" x2="80" y2="80" stroke="#ffffff" stroke-width="1" stroke-dasharray="2,2"/>
  <line x1="200" y1="100" x2="220" y2="80" stroke="#ffffff" stroke-width="1" stroke-dasharray="2,2"/>
  <line x1="150" y1="120" x2="150" y2="100" stroke="#ffffff" stroke-width="1" stroke-dasharray="2,2"/>
  
  <!-- IoT devices -->
  <circle cx="80" cy="80" r="5" fill="#00e5ff"/>
  <circle cx="220" cy="80" r="5" fill="#00e5ff"/>
  <circle cx="150" cy="100" r="5" fill="#00e5ff"/>
  
  <!-- Wifi signal -->
  <path d="M150,180 Q150,170 160,170 Q170,170 170,160 Q170,150 180,150" fill="none" stroke="#ffffff" stroke-width="2" stroke-dasharray="3,3"/>
</svg>