<svg xmlns="http://www.w3.org/2000/svg" viewBox="0 0 300 200">
  <!-- Background -->
  <rect width="300" height="200" fill="#2a2a2a"/>
  
  <!-- Water -->
  <rect x="30" y="100" width="240" height="70" fill="#00e5ff" opacity="0.5"/>
  
  <!-- Water waves -->
  <path d="M30,110 Q55,100 80,110 Q105,120 130,110 Q155,100 180,110 Q205,120 230,110 Q255,100 270,110" fill="none" stroke="#00e5ff" stroke-width="2"/>
  <path d="M30,120 Q55,110 80,120 Q105,130 130,120 Q155,110 180,120 Q205,130 230,120 Q255,110 270,120" fill="none" stroke="#00e5ff" stroke-width="2"/>
  
  <!-- Floating waste -->
  <rect x="70" y="95" width="20" height="10" fill="#b388ff" rx="2"/>
  <circle cx="120" cy="105" r="8" fill="#7c4dff"/>
  <rect x="180" y="100" width="15" height="15" fill="#b388ff" rx="2"/>
  <polygon points="220,95 230,105 210,105" fill="#7c4dff"/>
  
  <!-- Detection device/boat -->
  <rect x="130" y="80" width="40" height="20" rx="5" fill="#7c4dff"/>
  <rect x="140" y="70" width="20" height="10" rx="2" fill="#b388ff"/>
  
  <!-- Sensor beams -->
  <line x1="135" y1="100" x2="120" y2="105" stroke="#ffffff" stroke-width="1" stroke-dasharray="2,2"/>
  <line x1="165" y1="100" x2="180" y2="105" stroke="#ffffff" stroke-width="1" stroke-dasharray="2,2"/>
  
  <!-- Data transmission -->
  <path d="M150,70 L150,40 L180,40" stroke="#ffffff" stroke-width="1" stroke-dasharray="3,3" fill="none"/>
  
  <!-- Raspberry Pi / Processing unit -->
  <rect x="180" y="30" width="30" height="20" rx="2" fill="#7c4dff"/>
  <circle cx="190" cy="35" r="2" fill="#00e5ff"/>
  <circle cx="200" cy="35" r="2" fill="#00e5ff"/>
  <rect x="185" y="40" width="20" height="5" fill="#00e5ff" opacity="0.7"/>
  
  <!-- Sun -->
  <circle cx="50" cy="40" r="15" fill="#b388ff" opacity="0.8"/>
  <line x1="50" y1="20" x2="50" y2="15" stroke="#b388ff" stroke-width="2"/>
  <line x1="50" y1="65" x2="50" y2="60" stroke="#b388ff" stroke-width="2"/>
  <line x1="30" y1="40" x2="25" y2="40" stroke="#b388ff" stroke-width="2"/>
  <line x1="75" y1="40" x2="70" y2="40" stroke="#b388ff" stroke-width="2"/>
  <line x1="35" y1="25" x2="32" y2="22" stroke="#b388ff" stroke-width="2"/>
  <line x1="65" y1="55" x2="68" y2="58" stroke="#b388ff" stroke-width="2"/>
  <line x1="35" y1="55" x2="32" y2="58" stroke="#b388ff" stroke-width="2"/>
  <line x1="65" y1="25" x2="68" y2="22" stroke="#b388ff" stroke-width="2"/>
</svg>